<svg width="500" height="500" viewBox="0 0 500 500" fill="none" xmlns="http://www.w3.org/2000/svg">
<path d="M215.719 228.604C212.203 204.943 231.568 228.839 242.661 227.354C256.714 225.401 271.005 226.807 285.141 227.198C303.104 226.729 322.937 218.76 340.198 226.729C344.182 228.604 348.161 231.099 350.583 234.927C351.911 237.036 356.052 244.062 350.193 241.49C336.448 238.677 321.375 239.615 309.036 246.719C302.948 250.234 298.026 255.547 294.198 261.479C284.437 276.63 280.771 293.5 285.219 311.146C286.625 316.849 288.5 322.547 291.078 327.781C291 327.781 280.146 323.328 279.99 323.25C276.865 322.078 265.932 318.177 249.141 306.073C249.062 305.995 249.062 305.995 248.984 305.995C240.943 300.135 232.349 292.875 229.776 282.719C227.745 274.677 229.542 265.698 237.036 261.245C238.365 260.464 239.771 259.76 241.255 259.448C229.151 252.734 217.125 243.984 215.719 228.604Z" fill="#482880"/>
<path d="M64.1406 232.818C68.5104 192.057 85.7708 152.542 113.417 122.161C156.755 74.7604 223.682 50.0052 287.484 58.6719C315.443 62.5 343.167 73.0417 363.937 92.6458C321.531 67.3438 268.974 59.6875 221.104 71.7917C182.839 81.474 148.245 103.734 123.099 134.109C91.9427 171.672 77.3385 217.672 80.3802 266.245C81.3177 280.849 84.1302 294.901 88.3489 308.958C94.5937 329.891 105.448 349.255 118.88 366.438C133.797 385.568 151.76 402.516 172.844 414.698C192.214 425.865 213.844 433.047 235.865 436.563C260.307 440.391 285.531 439.609 309.661 434.063C315.911 432.578 322.078 430.865 328.172 428.755C352.068 420.24 375.573 407.354 394.552 390.411L395.016 389.943L395.094 389.865C390.568 395.484 385.568 400.797 380.26 405.641C357.297 426.802 322.703 439.219 292.484 444.453C260.385 449.995 226.964 447.964 196.115 437.5C136.219 417.12 96.2344 371.276 73.1979 313.724C63.9844 287.719 61.25 259.995 64.1406 232.818Z" fill="#482880"/>
<path d="M337.151 417.12C292.953 436.328 241.255 436.406 196.74 417.901C187.76 414.151 179.172 409.698 170.969 404.469C118.802 371.12 86.9427 312.786 87.4115 250.859C87.724 210.797 101.625 170.891 127.161 139.578C146.135 116.385 173.391 94.125 202.599 85.3802C206.734 84.1302 211.5 81.4739 215.484 84.4427C178.156 100.766 149.807 133.172 134.422 170.422C129.583 182.214 125.911 194.474 123.646 206.969C115.214 253.047 128.646 300.448 156.599 337.542C183.073 372.604 223.292 394.625 266.635 400.25C287.875 402.984 310.365 402.828 331.141 396.969C350.896 391.427 369.87 382.99 386.74 371.276C394.24 365.187 401.5 358.937 408.214 352.068C411.104 349.099 413.604 345.74 415.792 342.307L426.646 325.125C426.646 325.125 422.583 357.687 381.354 390.88C368.547 402.203 352.849 410.323 337.151 417.12Z" fill="#482880"/>
<path d="M429.38 241.099C429.38 241.177 429.38 241.177 429.38 241.177C422.271 280.146 392.833 317.786 353.24 325.125C380.417 308.099 401.031 279.677 404.938 247.891C406.656 230.323 403.297 215.25 400.563 206.734C397.594 197.911 393.693 189.323 388.615 181.51C373.698 160.896 352.302 145.354 327.391 139.578C320.125 138.016 312.708 137.313 305.37 137.469H305.214C304.745 137.469 304.354 137.469 303.964 137.469C289.125 138.016 274.599 141.922 261.479 148.714C245.625 156.911 231.88 169.172 222.51 184.635C221.26 186.432 220.245 187.995 219.385 189.323C217.438 192.448 216.5 194.318 216.5 194.318C216.734 192.995 216.969 191.667 217.281 190.417C218.839 183.464 221.182 177.063 223.995 171.281C226.885 165.349 230.401 159.958 234.146 155.12C236.724 151.604 239.536 148.323 242.583 145.198C242.427 145.354 242.193 145.589 242.036 145.745C242.349 145.432 242.583 145.12 242.896 144.885C243.208 144.573 243.521 144.182 243.906 143.87C244.297 143.479 244.766 143.016 245.156 142.625C248.125 139.813 251.25 137.078 254.531 134.656C262.807 128.49 271.943 123.568 281.625 119.896C281.938 119.818 282.172 119.661 282.406 119.583C282.719 119.505 282.953 119.349 283.188 119.271C283.422 119.193 283.656 119.115 283.891 119.036C284.125 118.958 284.359 118.802 284.672 118.724C285.141 118.568 285.375 118.49 285.375 118.49C286.469 118.099 287.484 117.792 288.578 117.479C296.385 115.135 304.51 113.651 312.63 112.948C319.656 112.323 326.766 112.323 333.714 112.948C340.589 113.573 347.146 115.057 353.708 117.167C357.688 118.411 361.594 119.896 365.422 121.536C372.682 124.583 379.557 128.333 386.036 132.859C395.953 139.813 403.766 147.776 409.776 156.208C435.234 191.745 430.161 235.005 429.38 240.474C429.38 240.786 429.38 241.021 429.38 241.099Z" fill="#482880"/>
<path d="M396.031 356.365C362.063 385.49 314.661 399.781 270.224 393.927C236.88 389.552 204.24 374.714 179.953 351.208C162.38 334.26 148.714 313.255 139.969 290.531C138.953 287.797 137.938 284.984 137.078 282.25C130.672 261.87 127.474 239.771 130.13 218.448C132.703 197.833 139.656 177.219 149.104 158.786C164.88 127.943 189.87 101.391 221.964 87.4115C261.948 73.7448 306.771 80.3021 344.49 98.0313C350.818 101.078 356.755 104.75 362.531 108.651C354.802 112.401 347.068 106.464 339.417 104.984C310.599 99.2813 277.333 107.557 252.969 123.177C225.245 140.906 209.156 169.484 203.38 201.505C198.068 231.177 202.443 262.807 218.297 288.656C222.12 294.979 226.651 300.917 231.646 306.307C269.052 346.443 336.917 357.766 383.771 327.703C409.307 311.38 427.427 284.281 436.641 255.703C437.109 254.219 438.438 251.641 438.281 250.078C438.281 250.078 438.75 255.156 438.516 263.198V263.276C438.359 267.573 437.969 272.646 437.266 278.349C437.031 280.224 436.719 282.25 436.406 284.281C433.281 303.026 426.333 321.453 415.089 336.76C409.698 344.104 403.375 350.74 396.031 356.365Z" fill="#482880"/>
<path d="M318.177 330.984C310.599 330.672 299.979 333.089 296.62 324.344C290.062 311.849 286.703 296.932 289.594 283.031C289.594 282.953 289.672 282.875 289.672 282.875C290.219 280.302 290.922 277.802 291.937 275.38C293.266 272.021 295.135 268.896 297.245 265.932C297.245 265.932 297.245 265.932 297.323 265.854C298.885 263.432 300.604 261.323 302.323 259.37C302.401 259.292 302.401 259.292 302.479 259.214C308.802 252.422 316.224 248.438 323.25 246.25C323.484 246.172 323.641 246.094 323.875 246.016C336.76 242.115 348.005 244.063 348.005 244.063C346.677 245.156 345.349 246.25 344.026 247.5C344.026 247.5 312.24 245.234 304.432 282.875C304.276 283.422 304.198 284.047 304.042 284.594V284.672C303.339 288.734 303.417 293.422 304.276 298.417C305.917 310.286 311.146 321.141 318.177 330.984Z" fill="#482880"/>
</svg>
