<svg width="68" height="95" viewBox="0 0 68 95" fill="none" xmlns="http://www.w3.org/2000/svg">
<g id="Frame" clip-path="url(#clip0_104_277)">
<g id="Group">
<path id="Vector" d="M67.1766 90.4482C67.1766 92.9272 65.1701 94.942 62.6911 94.942L4.6862 95.0083C2.71291 95.0083 1.0381 93.7398 0.432842 91.9737C0.27531 91.5177 0.192399 91.0368 0.192399 90.5311L0.101196 6.88167C0.101196 4.40261 2.10765 2.38786 4.58671 2.38786L57.8491 2.32982L62.5916 2.32153C65.0707 2.32153 67.0854 4.32799 67.0854 6.80705L67.1766 90.4482Z" fill="url(#paint0_linear_104_277)"/>
<g id="Group_2">
<path id="Vector_2" d="M61.1655 89.9673L6.20349 90.0253C4.86862 90.0253 3.79077 88.9474 3.79077 87.6126L3.70786 9.76697C3.70786 8.43209 4.7857 7.35424 6.12058 7.35424L61.0743 7.2962C62.4092 7.2962 63.4871 8.37405 63.4871 9.70893L63.57 87.5545C63.5783 88.8811 62.5004 89.9673 61.1655 89.9673Z" fill="white"/>
</g>
<path id="Vector_3" d="M53.4464 13.7136L13.3587 13.7633C12.0321 13.7633 10.946 12.6855 10.946 11.3589L10.9377 4.67623C10.9377 3.34964 12.0156 2.2635 13.3421 2.2635L53.4382 2.22205C54.7647 2.22205 55.8509 3.2999 55.8509 4.62648L55.8592 11.3091C55.8509 12.6357 54.773 13.7136 53.4464 13.7136ZM13.3421 3.49059C12.6954 3.49059 12.1648 4.02123 12.1648 4.66793L12.1731 11.3506C12.1731 11.9973 12.7037 12.5279 13.3504 12.5279L53.4464 12.4865C54.0932 12.4865 54.6238 11.9559 54.6238 11.3091L54.6155 4.62648C54.6155 3.97977 54.0849 3.44914 53.4382 3.44914L13.3421 3.49059Z" fill="url(#paint1_linear_104_277)"/>
<path id="Vector_4" d="M52.3106 5.11564L14.876 5.1571C14.4615 5.1571 14.1298 4.82545 14.1298 4.41089V0.787659C14.1298 0.373102 14.4615 0.0414557 14.876 0.0414557L52.3023 0C52.7169 0 53.0485 0.331646 53.0485 0.746203V4.36944C53.0568 4.78399 52.7252 5.11564 52.3106 5.11564Z" fill="url(#paint2_linear_104_277)"/>
<path id="Vector_5" d="M14.9092 5.15708L52.2774 5.11562C52.7085 5.11562 53.0568 4.7674 53.0568 4.33626V2.56195L14.1215 2.60341V4.37771C14.1215 4.80885 14.478 5.15708 14.9092 5.15708Z" fill="#58D6F4"/>
</g>
<path id="Vector_6" d="M22.4873 43.4871L11.9492 43.4954C10.2495 43.4954 8.85661 42.1107 8.85661 40.411L8.84003 25.6777C8.84003 23.978 10.2246 22.5851 11.9243 22.5851L22.4624 22.5768C24.1621 22.5768 25.555 23.9614 25.555 25.6611L25.5716 40.3945C25.5716 42.0942 24.187 43.4788 22.4873 43.4871ZM11.916 23.4805C10.7055 23.4805 9.72718 24.4672 9.72718 25.6777L9.74376 40.411C9.74376 41.6216 10.7304 42.5999 11.9409 42.5999L22.479 42.5916C23.6895 42.5916 24.6678 41.605 24.6678 40.3945L24.6513 25.6611C24.6513 24.4506 23.6646 23.4722 22.4541 23.4722L11.916 23.4805Z" fill="url(#paint3_linear_104_277)"/>
<path id="Vector_7" d="M17.2058 40.6598C22.1888 40.6515 23.7393 37.7745 23.7393 37.7745C23.5154 37.4926 23.2335 37.2439 22.8521 36.9951C21.5421 36.1411 20.4891 35.7763 20.0497 35.4115C19.602 35.055 19.3532 34.5327 19.3532 34.5327L19.0796 34.6985C19.0796 34.6985 18.9138 34.1264 19.005 33.2558C19.005 33.2558 19.3947 33.1563 19.6849 31.838C20.1492 31.9292 20.6964 30.7519 20.4394 30.3207C20.2736 30.0388 20.0746 30.0637 19.9336 30.1301C20.0746 29.5414 20.713 26.283 17.1975 26.283C13.6821 26.283 14.3205 29.5414 14.4698 30.1301C14.3288 30.0637 14.1298 30.0388 13.964 30.3207C13.707 30.7519 14.2625 31.9292 14.7268 31.838C15.017 33.1563 15.4149 33.2475 15.4149 33.2475C15.5144 34.1098 15.3403 34.6902 15.3403 34.6902L15.0667 34.5244C15.0667 34.5244 14.818 35.0384 14.3703 35.4032C13.9225 35.768 12.8779 36.1411 11.5679 36.9951C11.1865 37.2439 10.8963 37.4926 10.6807 37.7745C10.6724 37.7911 12.2311 40.6681 17.2058 40.6598Z" fill="url(#paint4_linear_104_277)"/>
<path id="Vector_8" d="M50.0222 27.2779L29.7338 27.3028C29.3524 27.3028 29.0456 26.996 29.0456 26.6146V26.4986C29.0456 26.1172 29.3524 25.8104 29.7338 25.8104L50.0222 25.7855C50.4036 25.7855 50.7104 26.0923 50.7104 26.4737V26.5898C50.7104 26.9712 50.3953 27.2779 50.0222 27.2779Z" fill="url(#paint5_linear_104_277)"/>
<path id="Vector_9" d="M42.5602 31.1415L29.7338 31.1581C29.3524 31.1581 29.0456 30.8513 29.0456 30.4699V30.3539C29.0456 29.9725 29.3524 29.6657 29.7338 29.6657L42.5602 29.6491C42.9416 29.6491 43.2483 29.9559 43.2483 30.3373V30.4534C43.2483 30.8348 42.9416 31.1415 42.5602 31.1415Z" fill="url(#paint6_linear_104_277)"/>
<path id="Vector_10" opacity="0.6" d="M57.0199 35.7348L29.7421 35.768C29.3607 35.768 29.0539 35.4612 29.0539 35.0798V34.9638C29.0539 34.5824 29.3607 34.2756 29.7421 34.2756L57.0199 34.2424C57.4013 34.2424 57.7081 34.5492 57.7081 34.9306V35.0467C57.6998 35.4281 57.393 35.7348 57.0199 35.7348Z" fill="url(#paint7_linear_104_277)"/>
<path id="Vector_11" opacity="0.6" d="M56.4313 48.6442L10.9294 48.6939C10.5398 48.6939 10.2164 48.3789 10.2164 47.9809V47.9146C10.2164 47.5249 10.5315 47.2015 10.9294 47.2015L56.4313 47.1518C56.821 47.1518 57.1443 47.4669 57.1443 47.8648V47.9312C57.1443 48.3291 56.821 48.6442 56.4313 48.6442Z" fill="url(#paint8_linear_104_277)"/>
<path id="Vector_12" opacity="0.6" d="M56.3161 53.4924L10.8142 53.5422C10.4246 53.5422 10.1012 53.2271 10.1012 52.8291V52.7628C10.1012 52.3731 10.4163 52.0497 10.8142 52.0497L56.3161 52C56.7058 52 57.0291 52.3151 57.0291 52.713V52.7794C57.0291 53.1773 56.7058 53.4924 56.3161 53.4924Z" fill="url(#paint9_linear_104_277)"/>
<path id="Vector_13" opacity="0.6" d="M56.3161 58.4924L10.8142 58.5422C10.4246 58.5422 10.1012 58.2271 10.1012 57.8291V57.7628C10.1012 57.3731 10.4163 57.0497 10.8142 57.0497L56.3161 57C56.7058 57 57.0291 57.3151 57.0291 57.713V57.7794C57.0291 58.1773 56.7058 58.4924 56.3161 58.4924Z" fill="url(#paint10_linear_104_277)"/>
<path id="Vector_14" opacity="0.6" d="M56.3161 63.4924L10.8142 63.5422C10.4246 63.5422 10.1012 63.2271 10.1012 62.8291V62.7628C10.1012 62.3731 10.4163 62.0497 10.8142 62.0497L56.3161 62C56.7058 62 57.0291 62.3151 57.0291 62.713V62.7794C57.0291 63.1773 56.7058 63.4924 56.3161 63.4924Z" fill="url(#paint11_linear_104_277)"/>
<path id="Vector_15" opacity="0.6" d="M56.4313 68.4924L10.9294 68.5422C10.5398 68.5422 10.2164 68.2271 10.2164 67.8291V67.7628C10.2164 67.3731 10.5315 67.0497 10.9294 67.0497L56.4313 67C56.821 67 57.1443 67.3151 57.1443 67.713V67.7794C57.1443 68.1773 56.821 68.4924 56.4313 68.4924Z" fill="url(#paint12_linear_104_277)"/>
<path id="Vector_16" opacity="0.6" d="M56.3161 73.3406L10.8142 73.3904C10.4246 73.3904 10.1012 73.0753 10.1012 72.6773V72.611C10.1012 72.2213 10.4163 71.898 10.8142 71.898L56.3161 71.8482C56.7058 71.8482 57.0291 72.1633 57.0291 72.5612V72.6276C57.0291 73.0255 56.7058 73.3406 56.3161 73.3406Z" fill="url(#paint13_linear_104_277)"/>
<path id="Vector_17" opacity="0.6" d="M56.3161 78.3406L10.8142 78.3904C10.4246 78.3904 10.1012 78.0753 10.1012 77.6773V77.611C10.1012 77.2213 10.4163 76.898 10.8142 76.898L56.3161 76.8482C56.7058 76.8482 57.0291 77.1633 57.0291 77.5612V77.6276C57.0291 78.0255 56.7058 78.3406 56.3161 78.3406Z" fill="url(#paint14_linear_104_277)"/>
<path id="Vector_18" opacity="0.6" d="M56.3161 83.3406L10.8142 83.3904C10.4246 83.3904 10.1012 83.0753 10.1012 82.6773V82.611C10.1012 82.2213 10.4163 81.898 10.8142 81.898L56.3161 81.8482C56.7058 81.8482 57.0291 82.1633 57.0291 82.5612V82.6276C57.0291 83.0255 56.7058 83.3406 56.3161 83.3406Z" fill="url(#paint15_linear_104_277)"/>
<path id="Vector_19" opacity="0.6" d="M57.0199 40.2452L29.7421 40.2784C29.3607 40.2784 29.0539 39.9716 29.0539 39.5902V39.4741C29.0539 39.0927 29.3607 38.786 29.7421 38.786L57.0199 38.7528C57.4013 38.7528 57.7081 39.0596 57.7081 39.441V39.5571C57.7081 39.9384 57.4013 40.2452 57.0199 40.2452Z" fill="url(#paint16_linear_104_277)"/>
</g>
<defs>
<linearGradient id="paint0_linear_104_277" x1="-9.18749" y1="34.748" x2="76.4653" y2="62.5782" gradientUnits="userSpaceOnUse">
<stop stop-color="#6CBCFC"/>
<stop offset="0.1713" stop-color="#5EABFC"/>
<stop offset="0.4084" stop-color="#509AFC"/>
<stop offset="0.6698" stop-color="#4890FC"/>
<stop offset="1" stop-color="#458DFC"/>
</linearGradient>
<linearGradient id="paint1_linear_104_277" x1="-5.1238" y1="-21.375" x2="55.8526" y2="7.98973" gradientUnits="userSpaceOnUse">
<stop stop-color="#CFE9FF"/>
<stop offset="1" stop-color="#A1D6FB"/>
</linearGradient>
<linearGradient id="paint2_linear_104_277" x1="14.1203" y1="2.57952" x2="53.0561" y2="2.57952" gradientUnits="userSpaceOnUse">
<stop stop-color="#B0F4FF"/>
<stop offset="1" stop-color="#69DCFC"/>
</linearGradient>
<linearGradient id="paint3_linear_104_277" x1="14.2361" y1="29.2075" x2="24.0167" y2="41.8334" gradientUnits="userSpaceOnUse">
<stop stop-color="#6CBCFC"/>
<stop offset="1" stop-color="#458DFC"/>
</linearGradient>
<linearGradient id="paint4_linear_104_277" x1="13.1753" y1="30.0293" x2="22.956" y2="42.6553" gradientUnits="userSpaceOnUse">
<stop stop-color="#B0F4FF"/>
<stop offset="0.0994384" stop-color="#A1EFFE"/>
<stop offset="0.2994" stop-color="#88E7FD"/>
<stop offset="0.5095" stop-color="#77E1FD"/>
<stop offset="0.7344" stop-color="#6CDDFC"/>
<stop offset="1" stop-color="#69DCFC"/>
</linearGradient>
<linearGradient id="paint5_linear_104_277" x1="29.0468" y1="26.551" x2="50.706" y2="26.564" gradientUnits="userSpaceOnUse">
<stop stop-color="#6CBCFC"/>
<stop offset="1" stop-color="#458DFC"/>
</linearGradient>
<linearGradient id="paint6_linear_104_277" x1="29.0507" y1="30.4036" x2="43.2475" y2="30.4036" gradientUnits="userSpaceOnUse">
<stop stop-color="#6CBCFC"/>
<stop offset="1" stop-color="#458DFC"/>
</linearGradient>
<linearGradient id="paint7_linear_104_277" x1="29.0554" y1="35.0098" x2="57.7035" y2="35.0098" gradientUnits="userSpaceOnUse">
<stop stop-color="#6CBCFC"/>
<stop offset="1" stop-color="#458DFC"/>
</linearGradient>
<linearGradient id="paint8_linear_104_277" x1="10.216" y1="47.9272" x2="57.142" y2="47.9272" gradientUnits="userSpaceOnUse">
<stop stop-color="#6CBCFC"/>
<stop offset="1" stop-color="#458DFC"/>
</linearGradient>
<linearGradient id="paint9_linear_104_277" x1="10.1008" y1="52.7754" x2="57.0268" y2="52.7754" gradientUnits="userSpaceOnUse">
<stop stop-color="#6CBCFC"/>
<stop offset="1" stop-color="#458DFC"/>
</linearGradient>
<linearGradient id="paint10_linear_104_277" x1="10.1008" y1="57.7754" x2="57.0268" y2="57.7754" gradientUnits="userSpaceOnUse">
<stop stop-color="#6CBCFC"/>
<stop offset="1" stop-color="#458DFC"/>
</linearGradient>
<linearGradient id="paint11_linear_104_277" x1="10.1008" y1="62.7754" x2="57.0268" y2="62.7754" gradientUnits="userSpaceOnUse">
<stop stop-color="#6CBCFC"/>
<stop offset="1" stop-color="#458DFC"/>
</linearGradient>
<linearGradient id="paint12_linear_104_277" x1="10.216" y1="67.7754" x2="57.142" y2="67.7754" gradientUnits="userSpaceOnUse">
<stop stop-color="#6CBCFC"/>
<stop offset="1" stop-color="#458DFC"/>
</linearGradient>
<linearGradient id="paint13_linear_104_277" x1="10.1008" y1="72.6236" x2="57.0268" y2="72.6236" gradientUnits="userSpaceOnUse">
<stop stop-color="#6CBCFC"/>
<stop offset="1" stop-color="#458DFC"/>
</linearGradient>
<linearGradient id="paint14_linear_104_277" x1="10.1008" y1="77.6236" x2="57.0268" y2="77.6236" gradientUnits="userSpaceOnUse">
<stop stop-color="#6CBCFC"/>
<stop offset="1" stop-color="#458DFC"/>
</linearGradient>
<linearGradient id="paint15_linear_104_277" x1="10.1008" y1="82.6236" x2="57.0268" y2="82.6236" gradientUnits="userSpaceOnUse">
<stop stop-color="#6CBCFC"/>
<stop offset="1" stop-color="#458DFC"/>
</linearGradient>
<linearGradient id="paint16_linear_104_277" x1="29.06" y1="39.5191" x2="57.7081" y2="39.5191" gradientUnits="userSpaceOnUse">
<stop stop-color="#6CBCFC"/>
<stop offset="1" stop-color="#458DFC"/>
</linearGradient>
<clipPath id="clip0_104_277">
<rect width="67.0754" height="95" fill="white" transform="translate(0.101196)"/>
</clipPath>
</defs>
</svg>
