<svg width="98" height="90" viewBox="0 0 98 90" fill="none" xmlns="http://www.w3.org/2000/svg">
<g clip-path="url(#clip0_104_44)">
<path d="M59.867 43.3151L50.1995 51.9802L9.3752 88.5661C8.30344 89.5289 6.92855 90.0103 5.55367 90.0103C4.04887 90.0103 2.54408 89.4367 1.45067 88.2998C-0.703681 86.0669 -0.422208 82.5743 2.05691 80.6692L50.1995 43.8272L55.5042 39.7712L59.867 43.3151Z" fill="url(#paint0_linear_104_44)"/>
<path d="M49.7774 52.4206L40.2614 60.9423L39.3845 52.185L44.5918 48.2007L49.7774 52.4206Z" fill="#D63A3D" fill-opacity="0.8"/>
<path d="M97.9524 29.9078C97.9524 46.4288 83.7922 59.8259 66.3409 59.8259C55.3418 59.8259 45.6527 54.5101 39.9908 46.4391C36.6672 41.7071 34.7294 36.0225 34.7294 29.9078C34.7294 13.3868 48.8896 0 66.3409 0C74.2221 0 81.4213 2.72448 86.9534 7.23114C93.687 12.7211 97.9524 20.8433 97.9524 29.9078Z" fill="url(#paint1_linear_104_44)"/>
<path d="M66.3409 53.2093C79.9431 53.2093 90.9698 42.7768 90.9698 29.9078C90.9698 17.0387 79.9431 6.60632 66.3409 6.60632C52.7388 6.60632 41.7121 17.0387 41.7121 29.9078C41.7121 42.7768 52.7388 53.2093 66.3409 53.2093Z" fill="white"/>
<path opacity="0.06" d="M97.9524 29.9078C97.9524 46.4288 83.7922 59.8259 66.3409 59.8259C55.3418 59.8259 45.6527 54.5101 39.9908 46.4391C75.6403 43.6941 85.0372 15.1178 86.9642 7.23114C93.687 12.7211 97.9524 20.8433 97.9524 29.9078Z" fill="#B51A1D" fill-opacity="0.5"/>
<path d="M66.3409 29.959C69.1989 29.959 71.5157 27.7672 71.5157 25.0632C71.5157 22.3592 69.1989 20.1673 66.3409 20.1673C63.4829 20.1673 61.1661 22.3592 61.1661 25.0632C61.1661 27.7672 63.472 29.959 66.3409 29.959ZM66.3409 32.407C62.8874 32.407 55.9914 34.0458 55.9914 37.3028V38.5319C55.9914 39.2079 56.576 39.761 57.2905 39.761H75.413C76.1275 39.761 76.7121 39.2079 76.7121 38.5319V37.3028C76.6904 34.056 69.7943 32.407 66.3409 32.407Z" fill="#FFB0B1"/>
</g>
<defs>
<linearGradient id="paint0_linear_104_44" x1="6.04331" y1="84.3265" x2="54.5098" y2="37.7562" gradientUnits="userSpaceOnUse">
<stop stop-color="#F36769"/>
<stop offset="1" stop-color="#F25A6E"/>
</linearGradient>
<linearGradient id="paint1_linear_104_44" x1="53.2662" y1="2.11336" x2="75.0736" y2="53.9304" gradientUnits="userSpaceOnUse">
<stop stop-color="#F36781"/>
<stop offset="1" stop-color="#F25A5D"/>
</linearGradient>
<clipPath id="clip0_104_44">
<rect width="97.9524" height="90" fill="white"/>
</clipPath>
</defs>
</svg>
